<svg version="1.1" id="Layer_1" xmlns="http://www.w3.org/2000/svg" xmlns:xlink="http://www.w3.org/1999/xlink" x="0px" y="0px"
	 width="100%" viewBox="0 0 496 496" enable-background="new 0 0 496 496" xml:space="preserve">
<path fill="#000000" opacity="1.000000" stroke="none" 
	d="
M253.115738,293.325745 
	C228.758911,303.461853 202.297729,294.923645 191.403900,272.795105 
	C178.064804,245.699524 190.493378,211.093201 224.648392,205.174042 
	C254.171539,200.057602 276.395844,219.422516 279.002960,246.336868 
	C280.995087,266.902649 272.220032,283.139374 253.115738,293.325745 
M195.181961,268.263611 
	C196.787781,270.786835 197.239380,274.162476 200.621155,275.915955 
	C200.969208,274.574280 201.348099,273.638489 201.441498,272.675018 
	C202.868393,257.957916 204.248108,243.236206 205.667953,228.518402 
	C205.861679,226.510284 204.978134,223.490112 208.137848,223.427231 
	C211.135895,223.367584 214.911484,221.960754 216.615601,226.472748 
	C218.614380,231.764862 220.966400,236.923965 223.179794,242.134567 
	C226.143326,249.111053 229.120834,256.081604 232.073608,263.010773 
	C234.312912,262.289307 234.344498,260.788330 234.839691,259.614960 
	C239.501205,248.569321 244.261826,237.563370 248.742020,226.444519 
	C250.291382,222.599335 253.176010,223.097351 256.162537,223.221252 
	C259.228424,223.348434 259.208832,225.517319 259.408630,227.795959 
	C260.670135,242.183029 262.021362,256.562225 263.358002,270.942627 
	C263.506042,272.535156 263.191681,274.370087 265.193420,275.154327 
	C275.552277,268.297546 276.959625,245.001556 267.994995,229.464172 
	C257.836151,211.856995 233.427887,204.499908 215.207458,213.553055 
	C194.603073,223.790710 186.006836,246.598038 195.181961,268.263611 
M222.988800,268.434998 
	C218.365448,257.526611 213.742111,246.618225 208.876724,235.138733 
	C207.573090,239.175674 207.521194,242.496246 207.237366,245.808960 
	C206.358826,256.062500 205.504364,266.328552 204.146378,276.523926 
	C203.764145,279.393677 204.051453,281.134277 206.309143,282.885406 
	C219.031662,292.753540 232.953949,295.372375 248.011459,289.421936 
	C253.213470,287.366211 258.364014,284.698120 262.079315,279.552094 
	C253.311310,278.047882 253.219955,278.056091 252.598038,271.139038 
	C252.137909,266.021210 252.059311,260.869568 251.622986,255.748978 
	C251.029678,248.786087 250.257355,241.838455 249.429245,233.559113 
	C248.106415,236.582413 247.344742,238.234894 246.653824,239.916443 
	C241.787186,251.760849 236.967987,263.624969 232.038666,275.443176 
	C231.389603,276.999359 231.220276,279.389282 228.766479,279.285675 
	C226.593079,279.193909 226.688217,276.964478 226.026260,275.550262 
	C225.040329,273.443939 224.222153,271.259064 222.988800,268.434998 
z"/>
<path fill="#000000" opacity="1.000000" stroke="none" 
	d="
M351.834717,271.378937 
	C350.977539,274.173798 353.366577,277.951172 350.179016,278.906555 
	C347.158936,279.811707 346.219452,276.022766 344.702942,273.984863 
	C335.862946,262.105652 327.087097,250.178711 318.232361,238.310593 
	C317.290710,237.048508 316.557129,235.379517 313.405884,234.996109 
	C313.405884,249.365784 313.405884,263.584473 313.405884,278.537262 
	C309.305145,277.024323 309.927551,274.630066 309.925110,272.692627 
	C309.907074,258.380463 309.910492,244.067657 310.054993,229.756546 
	C310.077911,227.483017 308.852600,224.143600 312.268372,223.399017 
	C315.965942,222.593002 319.853943,222.284180 322.612823,226.166595 
	C328.200470,234.029892 333.933228,241.790451 339.636841,249.570862 
	C342.188812,253.052017 344.814636,256.479034 348.637573,259.876373 
	C348.637573,247.872589 348.637573,235.868805 348.637573,223.135651 
	C352.601257,224.706879 351.898621,227.135284 351.903992,229.040054 
	C351.943481,243.012466 351.880676,256.985168 351.834717,271.378937 
z"/>
<path fill="#000000" opacity="1.000000" stroke="none" 
	d="
M150.153107,261.701294 
	C152.494019,269.966034 158.915833,275.207916 165.540863,274.588531 
	C174.190903,273.779846 180.472870,267.607391 180.765518,258.948761 
	C181.097015,249.141342 180.899338,239.316879 181.033981,229.501236 
	C181.061447,227.498413 180.418274,225.131454 182.760086,223.775955 
	C184.906723,224.471878 184.309326,226.223206 184.322906,227.579147 
	C184.422943,237.562286 184.539795,247.546890 184.467377,257.529694 
	C184.384811,268.909851 174.895584,278.836151 163.828125,279.337433 
	C150.692703,279.932404 141.105011,272.308289 139.618011,260.100128 
	C138.304733,249.318146 139.220169,238.494980 138.978424,227.693588 
	C138.891098,223.791672 141.053894,223.040848 144.382507,223.042709 
	C147.851715,223.044662 149.509888,224.081497 149.415817,227.932022 
	C149.196426,236.912689 149.304947,245.902802 149.383713,254.888199 
	C149.402451,257.027618 149.825821,259.163483 150.153107,261.701294 
z"/>
<path fill="#000000" opacity="1.000000" stroke="none" 
	d="
M369.963196,234.054947 
	C370.140106,222.889297 368.171051,223.076019 380.481506,223.043121 
	C385.641998,223.029327 390.802643,223.028931 395.963074,223.049927 
	C397.732666,223.057129 399.606140,222.860825 400.784302,224.491943 
	C400.445404,226.610107 398.951233,226.515610 397.684723,226.562927 
	C393.864990,226.705673 389.967377,227.258606 386.237244,226.713501 
	C380.807495,225.920029 379.946045,228.487122 380.300049,232.916382 
	C380.524841,235.728378 380.560638,238.594681 380.288422,241.398499 
	C379.826019,246.160599 381.607147,248.217331 386.512909,247.742126 
	C388.295258,247.569473 390.564728,246.723953 392.021149,249.202698 
	C390.531891,252.158844 387.685913,251.098053 385.482574,251.060608 
	C381.567719,250.994080 380.111328,252.571625 380.290222,256.428406 
	C380.505920,261.079742 380.513733,265.757050 380.288177,270.407471 
	C380.094940,274.392151 381.872650,275.778656 385.621918,275.668274 
	C389.946259,275.540894 394.279327,275.589722 398.605164,275.698792 
	C400.143463,275.737579 401.968933,275.043793 403.162415,276.835510 
	C402.992157,279.065247 401.200745,278.883209 399.845337,278.885559 
	C391.690857,278.899689 383.536011,278.740631 375.381622,278.762817 
	C371.383179,278.773712 369.874115,277.029236 369.924438,272.999786 
	C370.084473,260.183289 369.971680,247.363419 369.963196,234.054947 
z"/>
<path fill="#000000" opacity="1.000000" stroke="none" 
	d="
M108.335251,262.966736 
	C108.534576,276.721710 106.227356,275.608643 120.619659,275.665039 
	C123.274422,275.675446 125.930298,275.799408 128.581223,275.949249 
	C128.964417,275.970947 129.322632,276.434326 129.962631,276.882568 
	C128.567291,278.996948 126.403969,278.826874 124.639526,278.820892 
	C116.995125,278.795013 109.352127,278.466522 101.707298,278.400208 
	C98.686066,278.373962 98.083862,276.574066 98.081703,274.195404 
	C98.067482,258.563293 98.087585,242.931168 98.088142,227.299042 
	C98.088318,222.413162 101.819359,223.765152 104.547516,223.388748 
	C107.869225,222.930405 108.387924,224.780884 108.368347,227.549683 
	C108.286026,239.190598 108.334396,250.832443 108.335251,262.966736 
z"/>
<path fill="#000000" opacity="1.000000" stroke="none" 
	d="
M291.353546,236.012909 
	C291.355682,250.267288 291.355682,264.023590 291.355682,277.779419 
	C290.652649,278.052002 290.212799,278.367554 289.768860,278.373383 
	C279.551910,278.507751 280.984344,279.304688 280.934998,269.778046 
	C280.864502,256.163300 281.011108,242.546967 280.869324,228.933350 
	C280.826324,224.805374 282.056488,222.901901 286.541412,222.936890 
	C291.183014,222.973083 291.602966,225.490967 291.373047,229.040955 
	C291.233826,231.190369 291.349976,233.356339 291.353546,236.012909 
z"/>
<path fill="#000000" opacity="1.000000" stroke="none" 
	d="
M221.829468,311.863831 
	C223.205933,311.686798 224.195023,311.652252 225.182678,311.593597 
	C228.085236,311.421234 230.751343,312.073975 231.159958,315.351074 
	C231.548492,318.467163 228.991913,319.953156 226.469498,319.990601 
	C222.919830,320.043274 223.757370,323.713867 221.059448,325.466858 
	C219.880066,320.574005 220.193680,316.294312 221.829468,311.863831 
z"/>
<path fill="#000000" opacity="1.000000" stroke="none" 
	d="
M252.342010,316.776978 
	C253.291138,319.670166 255.301697,321.873352 255.051407,325.623474 
	C251.178940,322.709808 247.560165,322.955780 243.529999,325.524780 
	C243.902969,319.812988 246.846649,315.975861 247.964813,311.513458 
	C251.378799,312.082520 250.910477,314.929718 252.342010,316.776978 
z"/>
<path fill="#000000" opacity="1.000000" stroke="none" 
	d="
M204.821442,321.143219 
	C202.638382,326.446564 199.767227,326.915833 196.310989,322.885406 
	C196.897415,321.453278 197.921539,322.246368 198.799820,322.423157 
	C199.627151,322.589691 200.435043,322.780518 201.377533,321.715271 
	C199.360428,318.926270 192.268814,317.638428 197.159729,312.422668 
	C199.063919,310.391998 202.683243,310.467468 204.294662,314.102875 
	C202.968658,316.198700 200.890579,313.287903 199.559128,315.534485 
	C200.655426,317.762573 204.302917,317.838562 204.821442,321.143219 
z"/>
<path fill="#000000" opacity="1.000000" stroke="none" 
	d="
M275.960114,311.316589 
	C278.604065,311.561005 280.877441,311.830933 281.472015,315.407135 
	C277.236420,314.481232 271.622620,311.665924 271.666168,318.601868 
	C271.704285,324.665863 276.975403,322.680817 281.944916,321.383972 
	C279.787567,325.951599 276.785889,325.724976 274.103088,325.314819 
	C270.496857,324.763519 268.798248,322.154724 268.672882,318.642578 
	C268.505371,313.951202 271.110748,311.717957 275.960114,311.316589 
z"/>
<path fill="#000000" opacity="1.000000" stroke="none" 
	d="
M296.703827,314.555115 
	C298.483948,309.402527 301.779724,312.132782 304.835205,312.054108 
	C303.845093,314.672028 301.162262,313.318634 300.074036,315.148865 
	C299.388123,317.323273 302.657166,316.238739 302.648254,317.947449 
	C302.642059,319.985565 299.468201,319.118103 299.608093,321.519501 
	C300.310455,324.074127 303.676544,322.024445 304.802856,324.105957 
	C299.292175,327.131378 296.703430,325.805115 296.680115,319.937653 
	C296.673523,318.280762 296.689423,316.623779 296.703827,314.555115 
z"/>
</svg>