<svg version="1.1" id="Layer_1" xmlns="http://www.w3.org/2000/svg" xmlns:xlink="http://www.w3.org/1999/xlink" x="0px" y="0px"
	 width="100%" viewBox="0 0 150 150" enable-background="new 0 0 150 150" xml:space="preserve">
<path fill="#FFFFFE" opacity="1.000000" stroke="none" 
	d="
M92.000000,151.000000 
	C61.358486,151.000000 31.216972,151.000000 1.037730,151.000000 
	C1.037730,101.066872 1.037730,51.133701 1.037730,1.100266 
	C50.891285,1.100266 100.782837,1.100266 150.837189,1.100266 
	C150.837189,50.999569 150.837189,100.999741 150.837189,151.000000 
	C131.467392,151.000000 111.983696,151.000000 92.000000,151.000000 
M91.995979,74.103577 
	C91.995979,74.103577 92.111038,74.110435 91.282776,74.040184 
	C90.317581,74.907433 89.352386,75.774673 88.325531,76.875427 
	C88.325531,76.875427 88.116997,76.997231 87.624657,77.172943 
	C87.413979,77.441521 87.203300,77.710091 86.680222,78.509583 
	C85.570091,79.397141 84.459953,80.284691 82.713074,81.110405 
	C82.456894,81.736961 82.200722,82.363518 81.784622,83.594482 
	C81.399178,84.335564 81.013741,85.076637 80.239983,86.220772 
	C79.800385,86.808060 79.360794,87.395348 78.393585,88.416718 
	C77.772186,90.581757 73.478943,92.495590 78.083107,95.654770 
	C78.100746,96.095016 78.118378,96.535271 77.506599,97.053955 
	C76.110283,98.222206 77.543701,101.954956 73.437782,100.890205 
	C73.162659,100.704025 72.996895,100.447243 72.979301,99.364853 
	C71.268501,97.284775 69.557693,95.204689 67.890053,93.025970 
	C67.890053,93.025970 67.904335,93.132690 67.783043,92.632416 
	C67.522293,92.421356 67.261543,92.210297 66.561562,91.688934 
	C66.339157,91.209297 66.116753,90.729660 65.817429,89.719063 
	C65.572784,89.469193 65.328140,89.219315 65.007660,88.976791 
	C65.007660,88.976791 65.052521,88.915207 65.035408,88.136757 
	C64.212723,85.053093 64.754150,80.905159 59.066555,80.968475 
	C58.393692,80.559090 57.720825,80.149704 57.025238,78.999603 
	C59.027210,76.724609 61.029186,74.449615 63.650429,71.980209 
	C64.078842,71.924019 64.507256,71.867828 65.323509,72.389587 
	C66.521706,71.557022 67.719910,70.724464 69.012520,69.939575 
	C69.012520,69.939575 68.911316,69.914627 69.661690,69.970253 
	C70.740639,68.934410 71.819588,67.898567 72.982567,66.968330 
	C72.982567,66.968330 72.868370,66.896408 73.601822,66.871292 
	C73.999733,66.104927 74.397652,65.338554 74.792114,64.262436 
	C74.792114,64.262436 74.966255,64.006241 75.438194,63.767044 
	C75.575752,63.453739 75.713310,63.140434 75.795944,62.898537 
	C75.795944,62.898537 75.773232,62.811356 76.509583,62.833797 
	C76.762283,61.237358 77.014992,59.640923 77.232079,57.289310 
	C77.341484,56.544369 77.450897,55.799427 78.152275,54.803440 
	C80.417030,49.897747 77.771469,43.137539 72.192863,40.995098 
	C71.476761,40.654465 70.760666,40.313828 69.766296,39.334999 
	C65.508247,34.297039 59.577911,35.016144 53.339375,34.256172 
	C48.906197,34.519592 44.473019,34.783012 39.253975,34.991673 
	C34.618641,34.991673 29.983303,34.991673 25.347967,34.991673 
	C25.295776,35.530563 25.243586,36.069454 25.191395,36.608349 
	C26.128166,37.071178 27.064939,37.534008 28.599642,38.453297 
	C29.563120,41.991539 30.526598,45.529778 31.311243,49.978634 
	C31.323805,65.634445 31.336367,81.290260 31.056623,97.666756 
	C29.630810,100.591278 28.204996,103.515808 26.729534,106.542160 
	C31.289955,106.542160 36.669853,106.542160 42.049747,106.542160 
	C42.019150,106.047478 41.988548,105.552788 41.875027,104.304062 
	C40.475674,100.495956 39.076317,96.687843 37.474667,92.146454 
	C37.360081,91.136284 37.245491,90.126114 37.332821,89.167175 
	C37.332821,89.167175 37.541775,89.158020 38.162533,88.772758 
	C37.930004,85.481308 37.697475,82.189865 37.318317,78.130470 
	C37.377464,77.094353 37.436615,76.058235 38.240253,75.015305 
	C39.635696,75.577835 41.013763,76.189392 42.430592,76.691589 
	C44.641552,77.475258 46.878784,78.184784 49.694012,79.245277 
	C51.486290,81.414528 53.373596,83.512955 55.053017,85.766304 
	C60.085110,92.518082 65.035942,99.330414 70.498489,106.672928 
	C76.588531,107.427803 82.678360,108.184532 88.773254,108.898003 
	C88.813904,108.902763 88.924591,108.309303 89.752190,108.024887 
	C90.502281,108.029572 91.252365,108.034256 92.522629,108.578186 
	C98.108131,110.323746 100.832108,106.117714 104.890938,103.005226 
	C109.778610,102.064423 114.666283,101.123619 119.553955,100.182816 
	C119.695549,100.805573 119.837143,101.428329 119.978737,102.051086 
	C118.929291,102.369431 117.895966,102.881607 116.827431,102.970467 
	C113.365631,103.258339 113.011848,106.086037 115.045853,107.089920 
	C118.711624,108.899178 123.048317,109.604889 127.185349,110.105064 
	C129.567184,110.393028 132.197083,109.640366 134.543976,108.848343 
	C136.091782,108.325996 137.760452,107.154305 138.571747,105.794220 
	C139.159622,104.808693 130.910675,97.246292 128.981079,96.396835 
	C128.905258,95.967720 128.829422,95.538605 129.347687,94.689941 
	C129.142502,92.765999 129.016373,90.829277 128.708008,88.922020 
	C128.444412,87.291695 127.135231,85.180420 127.750076,84.181320 
	C129.515106,81.313179 127.852997,80.249550 126.175842,78.404457 
	C122.454819,74.310852 118.365593,70.110451 121.454514,63.684895 
	C121.734306,63.102901 121.538513,61.815765 121.081680,61.436451 
	C118.773201,59.519691 116.305161,57.795097 113.479828,55.411732 
	C110.799789,48.488651 108.119751,41.565575 104.996040,33.496403 
	C103.691757,36.863571 102.875938,38.969696 101.692207,41.314163 
	C101.461243,41.597694 101.486359,41.856373 101.594902,42.699116 
	C101.503830,43.109596 101.412758,43.520081 100.693672,44.338024 
	C99.071144,49.178978 97.448608,54.019932 95.238235,59.253784 
	C94.809715,62.250774 94.381203,65.247765 93.979385,68.995926 
	C93.987686,69.998093 93.995987,71.000252 93.346794,72.098358 
	C92.933884,72.777657 92.520981,73.456955 91.995979,74.103577 
z"/>
<path fill="#B49C6B" opacity="1.000000" stroke="none" 
	d="
M101.321693,43.930561 
	C101.412758,43.520081 101.503830,43.109596 101.770782,42.241909 
	C102.043823,41.557938 102.081642,41.321644 102.060127,41.075817 
	C102.875938,38.969696 103.691757,36.863571 104.996040,33.496403 
	C108.119751,41.565575 110.799789,48.488651 113.713181,56.084297 
	C118.882225,69.541069 123.817917,82.325279 128.753601,95.109489 
	C128.829422,95.538605 128.905258,95.967720 129.185272,97.020416 
	C130.928528,100.247093 132.467575,102.850189 134.227417,105.826736 
	C128.346848,105.826736 123.100998,105.826736 117.280594,105.826736 
	C123.418358,102.271767 123.891945,100.676575 121.264572,93.494141 
	C120.501793,91.430229 119.794701,89.713028 119.066643,87.625511 
	C117.433281,84.139618 115.820885,81.024040 114.171494,77.527122 
	C113.452087,75.085564 112.769661,73.025360 112.028282,70.656052 
	C111.700600,69.558990 111.431870,68.771019 111.166702,67.588638 
	C109.847694,63.674553 108.525124,60.154869 107.198090,56.471249 
	C107.193611,56.307312 107.043648,56.012394 107.043205,55.687622 
	C106.737953,54.804203 106.433151,54.245560 106.100952,53.326820 
	C104.700821,49.966446 103.328079,46.966167 101.798859,43.922417 
	C101.642380,43.878944 101.321693,43.930561 101.321693,43.930561 
z"/>
<path fill="#B9A06D" opacity="1.000000" stroke="none" 
	d="
M31.490076,49.068020 
	C30.526598,45.529778 29.563120,41.991539 28.345074,37.820381 
	C31.391266,35.754639 34.679005,34.462154 37.410828,38.397255 
	C37.402802,39.181908 37.496773,39.631039 37.462646,40.308380 
	C37.246685,40.687332 37.158825,40.838066 36.758106,41.270416 
	C36.326061,56.869278 36.196178,72.186478 36.132145,87.503952 
	C36.129906,88.039886 36.783161,88.578552 37.130905,89.115944 
	C37.245491,90.126114 37.360081,91.136284 37.408020,92.902054 
	C38.129448,97.761841 36.495911,102.846642 41.957954,105.058105 
	C41.988548,105.552788 42.019150,106.047478 42.049751,106.542160 
	C36.669853,106.542160 31.289955,106.542160 26.729534,106.542160 
	C28.204996,103.515808 29.630810,100.591278 31.566082,97.189972 
	C32.384628,95.997169 32.960617,95.282188 32.963383,94.564987 
	C33.018448,80.306396 33.035049,66.047371 32.944321,51.789169 
	C32.938530,50.879074 31.996542,49.974930 31.490076,49.068020 
z"/>
<path fill="#B29B69" opacity="1.000000" stroke="none" 
	d="
M72.940491,100.119865 
	C72.996895,100.447243 73.162659,100.704025 73.823593,101.282532 
	C75.425018,102.834641 76.640640,103.994438 78.867577,106.119110 
	C75.054138,106.119110 72.536316,106.119110 70.018494,106.119110 
	C65.035942,99.330414 60.085110,92.518082 55.053017,85.766304 
	C53.373596,83.512955 51.486290,81.414528 49.271690,78.787186 
	C48.762287,78.189430 48.642326,78.059395 48.597813,77.907288 
	C48.557110,77.768204 48.598011,77.605240 48.602951,77.452805 
	C51.417953,78.215309 54.232960,78.977814 57.047958,79.740326 
	C57.720825,80.149704 58.393692,80.559090 59.477222,81.397324 
	C61.609432,84.189186 63.330978,86.552200 65.052521,88.915207 
	C65.052521,88.915207 65.007660,88.976791 65.090424,89.235863 
	C65.413567,89.746635 65.653954,89.998329 65.894341,90.250023 
	C66.116753,90.729660 66.339157,91.209297 66.834076,92.099792 
	C67.372505,92.718002 67.638420,92.925346 67.904335,93.132690 
	C67.904335,93.132690 67.890053,93.025970 67.930252,93.409554 
	C69.627129,95.902046 71.283806,98.010956 72.940491,100.119865 
z"/>
<path fill="#FDFCF8" opacity="1.000000" stroke="none" 
	d="
M121.320259,93.840851 
	C123.891945,100.676575 123.418358,102.271767 117.280594,105.826736 
	C123.100998,105.826736 128.346848,105.826736 134.227417,105.826736 
	C132.467575,102.850189 130.928528,100.247093 129.328293,97.315170 
	C130.910675,97.246292 139.159622,104.808693 138.571747,105.794220 
	C137.760452,107.154305 136.091782,108.325996 134.543976,108.848343 
	C132.197083,109.640366 129.567184,110.393028 127.185349,110.105064 
	C123.048317,109.604889 118.711624,108.899178 115.045853,107.089920 
	C113.011848,106.086037 113.365631,103.258339 116.827431,102.970467 
	C117.895966,102.881607 118.929291,102.369431 119.978737,102.051086 
	C119.837143,101.428329 119.695549,100.805573 119.553955,100.182816 
	C114.666283,101.123619 109.778610,102.064423 104.513519,102.670441 
	C106.092743,100.557274 108.049393,98.778893 110.286728,97.202042 
	C113.397736,99.103905 118.561806,97.392899 121.320259,93.840851 
z"/>
<path fill="#F8F4E6" opacity="1.000000" stroke="none" 
	d="
M57.036598,79.369965 
	C54.232960,78.977814 51.417953,78.215309 48.602951,77.452805 
	C48.598011,77.605240 48.557110,77.768204 48.597813,77.907288 
	C48.642326,78.059395 48.762287,78.189430 48.977123,78.627411 
	C46.878784,78.184784 44.641552,77.475258 42.430592,76.691589 
	C41.013763,76.189392 39.635696,75.577835 37.750557,74.581245 
	C37.338444,71.749557 37.416023,69.351936 37.844040,66.964203 
	C39.136448,66.996605 40.078419,67.019104 40.879761,67.347412 
	C40.622952,68.599304 40.506779,69.545387 40.390606,70.491470 
	C40.766899,70.515419 41.143192,70.539360 41.519485,70.563309 
	C41.675694,69.713631 41.831902,68.863945 42.370705,68.019135 
	C47.855885,69.062195 52.958469,70.100380 58.193966,71.417778 
	C59.894974,71.856194 61.463066,72.015411 63.031158,72.174622 
	C61.029186,74.449615 59.027210,76.724609 57.036598,79.369965 
z"/>
<path fill="#B39B69" opacity="1.000000" stroke="none" 
	d="
M70.044563,39.973198 
	C70.760666,40.313828 71.476761,40.654465 72.595108,41.390259 
	C74.518341,46.208443 76.039330,50.631462 77.560310,55.054485 
	C77.450897,55.799427 77.341484,56.544369 77.094879,57.993324 
	C76.562859,60.068676 76.168045,61.440014 75.773232,62.811356 
	C75.773232,62.811356 75.795944,62.898537 75.581818,62.974167 
	C75.233879,63.368610 75.100067,63.687428 74.966255,64.006241 
	C74.966255,64.006241 74.792114,64.262436 74.507690,64.563683 
	C73.771629,65.542084 73.320000,66.219246 72.868370,66.896408 
	C72.868370,66.896408 72.982567,66.968330 72.646347,66.925018 
	C71.923149,66.950439 71.536179,67.019165 70.777512,67.019836 
	C69.861221,66.186996 69.316635,65.422211 68.851471,64.288742 
	C72.644913,55.980000 71.936447,48.462250 66.984985,41.052292 
	C68.143158,40.481133 69.093857,40.227165 70.044563,39.973198 
z"/>
<path fill="#F8F4E6" opacity="1.000000" stroke="none" 
	d="
M110.006042,97.000519 
	C108.049393,98.778893 106.092743,100.557274 104.111954,102.676636 
	C100.832108,106.117714 98.108131,110.323746 92.479279,108.036484 
	C96.325027,104.754562 91.851898,104.318451 91.111763,104.075096 
	C86.606842,102.593918 84.323494,99.631340 84.043266,94.617424 
	C84.289749,93.014809 84.503433,91.792099 84.810501,90.982353 
	C86.031189,96.350113 87.432098,102.049873 93.023125,102.690865 
	C98.752357,103.347694 103.990105,100.745483 106.530693,94.519714 
	C107.036102,93.281197 109.094521,90.234863 110.889771,94.297180 
	C110.504547,95.392197 110.255295,96.196350 110.006042,97.000519 
z"/>
<path fill="#B29863" opacity="1.000000" stroke="none" 
	d="
M84.010468,94.997337 
	C84.323494,99.631340 86.606842,102.593918 91.111763,104.075096 
	C91.851898,104.318451 96.325027,104.754562 92.219193,107.766869 
	C91.252365,108.034256 90.502281,108.029572 89.150322,107.733650 
	C82.127319,106.888420 80.219795,101.844299 78.136017,96.975517 
	C78.118378,96.535271 78.100746,96.095016 78.085861,94.943619 
	C78.366135,92.149193 78.643661,90.065910 78.921188,87.982635 
	C79.360794,87.395348 79.800385,86.808060 80.849091,86.121964 
	C82.308952,89.014542 83.159706,92.005943 84.010468,94.997337 
z"/>
<path fill="#FDFCF8" opacity="1.000000" stroke="none" 
	d="
M129.050644,94.899719 
	C123.817917,82.325279 118.882225,69.541069 113.919815,56.379986 
	C116.305161,57.795097 118.773201,59.519691 121.081680,61.436451 
	C121.538513,61.815765 121.734306,63.102901 121.454514,63.684895 
	C118.365593,70.110451 122.454819,74.310852 126.175842,78.404457 
	C127.852997,80.249550 129.515106,81.313179 127.750076,84.181320 
	C127.135231,85.180420 128.444412,87.291695 128.708008,88.922020 
	C129.016373,90.829277 129.142502,92.765999 129.050644,94.899719 
z"/>
<path fill="#AA9360" opacity="1.000000" stroke="none" 
	d="
M31.400660,49.523327 
	C31.996542,49.974930 32.938530,50.879074 32.944321,51.789169 
	C33.035049,66.047371 33.018448,80.306396 32.963383,94.564987 
	C32.960617,95.282188 32.384628,95.997169 31.712234,96.829636 
	C31.336367,81.290260 31.323805,65.634445 31.400660,49.523327 
z"/>
<path fill="#FBF7EA" opacity="1.000000" stroke="none" 
	d="
M107.202560,56.635185 
	C108.525124,60.154869 109.847694,63.674553 110.821945,67.555534 
	C109.318787,67.281700 108.163933,66.646576 107.006020,65.663643 
	C106.790146,64.351929 106.577332,63.388027 106.401108,62.589863 
	C104.850006,64.280075 103.589737,65.797913 102.176102,67.156120 
	C100.520668,68.746620 98.731682,70.198120 96.724838,71.791122 
	C96.077339,71.962006 95.705612,72.051682 95.002518,72.096863 
	C94.448853,72.035721 94.226578,72.019073 94.004295,72.002419 
	C93.995987,71.000252 93.987686,69.998093 94.347298,68.560196 
	C95.815735,67.402985 96.916260,66.681488 98.124191,65.746910 
	C98.432655,65.271774 98.691360,65.093262 99.226402,64.888969 
	C99.716820,64.578529 99.904648,64.317093 100.327133,63.954498 
	C101.097351,63.279366 101.549004,62.645100 102.299416,61.987442 
	C103.065010,61.639656 103.531837,61.315269 104.202026,60.714722 
	C105.337784,59.170769 106.270172,57.902977 107.202560,56.635185 
z"/>
<path fill="#B2A079" opacity="1.000000" stroke="none" 
	d="
M95.333893,72.141357 
	C95.705612,72.051682 96.077339,71.962006 96.981918,71.942505 
	C97.700638,72.351013 97.886497,72.689339 97.840279,73.128891 
	C97.407021,73.492210 97.205841,73.754318 96.747955,74.084122 
	C96.254456,74.407074 96.017662,74.662338 95.482422,75.055817 
	C89.988274,79.157288 84.866020,83.170525 84.717117,90.569397 
	C84.503433,91.792099 84.289749,93.014809 84.043266,94.617424 
	C83.159706,92.005943 82.308952,89.014542 81.043251,85.920433 
	C81.013741,85.076637 81.399178,84.335564 82.132141,83.158463 
	C82.769714,82.205711 83.059769,81.688980 83.349823,81.172249 
	C84.459953,80.284691 85.570091,79.397141 87.088829,78.166916 
	C87.703957,77.548584 87.910477,77.272903 88.116989,76.997223 
	C88.116997,76.997231 88.325531,76.875427 88.669792,76.665604 
	C90.046387,75.674004 91.078712,74.892220 92.111038,74.110435 
	C92.111038,74.110435 91.995979,74.103577 92.367477,74.062820 
	C93.603943,73.395157 94.468918,72.768257 95.333893,72.141357 
z"/>
<path fill="#F8F4E6" opacity="1.000000" stroke="none" 
	d="
M77.821304,97.014740 
	C80.219795,101.844299 82.127319,106.888420 88.775513,107.718796 
	C88.924591,108.309303 88.813904,108.902763 88.773254,108.898003 
	C82.678360,108.184532 76.588531,107.427803 70.258492,106.396019 
	C72.536316,106.119110 75.054138,106.119110 78.867577,106.119110 
	C76.640640,103.994438 75.425018,102.834641 74.041534,101.368744 
	C77.543701,101.954956 76.110283,98.222206 77.821304,97.014740 
z"/>
<path fill="#B2A47C" opacity="1.000000" stroke="none" 
	d="
M69.905426,39.654099 
	C69.093857,40.227165 68.143158,40.481133 66.663704,40.902412 
	C62.118965,39.342693 58.102978,37.615662 54.056969,35.599792 
	C53.997139,35.119675 53.967323,34.928391 53.937508,34.737106 
	C59.577911,35.016144 65.508247,34.297039 69.905426,39.654099 
z"/>
<path fill="#A79163" opacity="1.000000" stroke="none" 
	d="
M37.493603,66.954308 
	C37.416023,69.351936 37.338444,71.749557 37.378311,74.584656 
	C37.436615,76.058235 37.377464,77.094353 37.258484,78.964294 
	C37.313026,82.918083 37.427399,86.038048 37.541771,89.158020 
	C37.541775,89.158020 37.332821,89.167175 37.231865,89.141556 
	C36.783161,88.578552 36.129906,88.039886 36.132145,87.503952 
	C36.196178,72.186478 36.326061,56.869278 36.821442,41.736572 
	C37.296288,50.265511 37.394947,58.609909 37.493603,66.954308 
z"/>
<path fill="#B1A382" opacity="1.000000" stroke="none" 
	d="
M68.772041,64.657425 
	C69.316635,65.422211 69.861221,66.186996 70.663124,67.304153 
	C70.250725,68.409233 69.581024,69.161926 68.911316,69.914627 
	C68.911316,69.914627 69.012520,69.939575 68.645714,69.959976 
	C67.164497,70.590797 66.050079,71.201218 64.935669,71.811646 
	C64.507256,71.867828 64.078842,71.924019 63.340794,72.077415 
	C61.463066,72.015411 59.894974,71.856194 58.563293,71.359116 
	C62.123821,68.899971 65.447929,66.778694 68.772041,64.657425 
z"/>
<path fill="#F8F4E6" opacity="1.000000" stroke="none" 
	d="
M77.856293,54.928963 
	C76.039330,50.631462 74.518341,46.208443 72.893890,41.443832 
	C77.771469,43.137539 80.417030,49.897747 77.856293,54.928963 
z"/>
<path fill="#EEE8D4" opacity="1.000000" stroke="none" 
	d="
M37.512825,38.061729 
	C34.679005,34.462154 31.391266,35.754639 28.046108,37.592152 
	C27.064939,37.534008 26.128166,37.071178 25.191395,36.608349 
	C25.243586,36.069454 25.295776,35.530563 25.347967,34.991673 
	C29.983303,34.991673 34.618641,34.991673 39.634331,35.337486 
	C40.014584,36.109161 40.014481,36.535023 39.854900,37.209316 
	C38.967892,37.659077 38.240356,37.860405 37.512825,38.061729 
z"/>
<path fill="#D2CCBD" opacity="1.000000" stroke="none" 
	d="
M40.014378,36.960884 
	C40.014481,36.535023 40.014584,36.109161 40.027264,35.364868 
	C44.473019,34.783012 48.906197,34.519592 53.638443,34.496639 
	C53.967323,34.928391 53.997139,35.119675 53.652756,35.634731 
	C49.531025,36.341312 45.783489,36.724121 41.699932,37.068474 
	C40.914062,37.006969 40.464222,36.983925 40.014378,36.960884 
z"/>
<path fill="#EEE8D4" opacity="1.000000" stroke="none" 
	d="
M41.916489,104.681084 
	C36.495911,102.846642 38.129448,97.761841 37.509171,93.268700 
	C39.076317,96.687843 40.475674,100.495956 41.916489,104.681084 
z"/>
<path fill="#CCC8BA" opacity="1.000000" stroke="none" 
	d="
M101.007683,44.134293 
	C101.321693,43.930561 101.642380,43.878944 101.807556,44.300724 
	C100.007423,49.499249 98.042114,54.275993 96.013641,59.005417 
	C95.950470,58.958088 95.826073,58.860886 95.826073,58.860886 
	C97.448608,54.019932 99.071144,49.178978 101.007683,44.134293 
z"/>
<path fill="#EEE8D4" opacity="1.000000" stroke="none" 
	d="
M37.852150,88.965393 
	C37.427399,86.038048 37.313026,82.918083 37.331802,79.348267 
	C37.697475,82.189865 37.930004,85.481308 37.852150,88.965393 
z"/>
<path fill="#CCC8BA" opacity="1.000000" stroke="none" 
	d="
M98.016785,65.959999 
	C96.916260,66.681488 95.815735,67.402985 94.333954,68.184616 
	C94.381203,65.247765 94.809715,62.250774 95.532150,59.057335 
	C95.826073,58.860886 95.950470,58.958088 96.000961,59.382759 
	C95.446541,62.053627 94.841629,64.299828 94.043144,67.264832 
	C95.952988,66.637688 96.984886,66.298843 98.016785,65.959999 
z"/>
<path fill="#F8F4E6" opacity="1.000000" stroke="none" 
	d="
M65.043961,88.525986 
	C63.330978,86.552200 61.609432,84.189186 59.751434,81.507675 
	C64.754150,80.905159 64.212723,85.053093 65.043961,88.525986 
z"/>
<path fill="#F8F4E6" opacity="1.000000" stroke="none" 
	d="
M72.959900,99.742355 
	C71.283806,98.010956 69.627129,95.902046 67.908669,93.458878 
	C69.557693,95.204689 71.268501,97.284775 72.959900,99.742355 
z"/>
<path fill="#F8F4E6" opacity="1.000000" stroke="none" 
	d="
M78.657387,88.199677 
	C78.643661,90.065910 78.366135,92.149193 78.015610,94.620499 
	C73.478943,92.495590 77.772186,90.581757 78.657387,88.199677 
z"/>
<path fill="#F8F4E6" opacity="1.000000" stroke="none" 
	d="
M65.129593,72.100616 
	C66.050079,71.201218 67.164497,70.590797 68.598511,69.936142 
	C67.719910,70.724464 66.521706,71.557022 65.129593,72.100616 
z"/>
<path fill="#F8F4E6" opacity="1.000000" stroke="none" 
	d="
M69.286499,69.942444 
	C69.581024,69.161926 70.250725,68.409233 71.034821,67.372208 
	C71.536179,67.019165 71.923149,66.950439 72.604332,66.872223 
	C71.819588,67.898567 70.740639,68.934410 69.286499,69.942444 
z"/>
<path fill="#F8F4E6" opacity="1.000000" stroke="none" 
	d="
M76.141403,62.822578 
	C76.168045,61.440014 76.562859,60.068676 77.112686,58.370911 
	C77.014992,59.640923 76.762283,61.237358 76.141403,62.822578 
z"/>
<path fill="#F8F4E6" opacity="1.000000" stroke="none" 
	d="
M91.696907,74.075310 
	C91.078712,74.892220 90.046387,75.674004 88.700623,76.548851 
	C89.352386,75.774673 90.317581,74.907433 91.696907,74.075310 
z"/>
<path fill="#F8F4E6" opacity="1.000000" stroke="none" 
	d="
M95.002518,72.096863 
	C94.468918,72.768257 93.603943,73.395157 92.423523,74.079155 
	C92.520981,73.456955 92.933884,72.777657 93.675545,72.050385 
	C94.226578,72.019073 94.448853,72.035721 95.002518,72.096863 
z"/>
<path fill="#F8F4E6" opacity="1.000000" stroke="none" 
	d="
M73.235092,66.883850 
	C73.320000,66.219246 73.771629,65.542084 74.509415,64.718559 
	C74.397652,65.338554 73.999733,66.104927 73.235092,66.883850 
z"/>
<path fill="#F8F4E6" opacity="1.000000" stroke="none" 
	d="
M83.031448,81.141327 
	C83.059769,81.688980 82.769714,82.205711 82.212112,82.856255 
	C82.200722,82.363518 82.456894,81.736961 83.031448,81.141327 
z"/>
<path fill="#F8F4E6" opacity="1.000000" stroke="none" 
	d="
M65.855881,89.984543 
	C65.653954,89.998329 65.413567,89.746635 65.128342,89.232193 
	C65.328140,89.219315 65.572784,89.469193 65.855881,89.984543 
z"/>
<path fill="#F8F4E6" opacity="1.000000" stroke="none" 
	d="
M67.843689,92.882553 
	C67.638420,92.925346 67.372505,92.718002 67.053688,92.254944 
	C67.261543,92.210297 67.522293,92.421356 67.843689,92.882553 
z"/>
<path fill="#F8F4E6" opacity="1.000000" stroke="none" 
	d="
M87.870819,77.085083 
	C87.910477,77.272903 87.703957,77.548584 87.245026,77.901459 
	C87.203300,77.710091 87.413979,77.441521 87.870819,77.085083 
z"/>
<path fill="#CCC8BA" opacity="1.000000" stroke="none" 
	d="
M101.876167,41.194992 
	C102.081642,41.321644 102.043823,41.557938 101.857101,41.937454 
	C101.486359,41.856373 101.461243,41.597694 101.876167,41.194992 
z"/>
<path fill="#F8F4E6" opacity="1.000000" stroke="none" 
	d="
M75.202225,63.886642 
	C75.100067,63.687428 75.233879,63.368610 75.609276,62.938461 
	C75.713310,63.140434 75.575752,63.453739 75.202225,63.886642 
z"/>
<path fill="#FDFCF8" opacity="1.000000" stroke="none" 
	d="
M84.810493,90.982353 
	C84.866020,83.170525 89.988274,79.157288 95.745605,74.997429 
	C96.539719,74.539352 96.772186,74.277893 97.004654,74.016434 
	C97.205841,73.754318 97.407021,73.492210 98.161201,73.123947 
	C99.142342,73.009964 99.570488,73.002136 100.412025,72.994781 
	C103.897308,73.415329 105.490700,72.295883 105.118492,68.722084 
	C105.834404,67.636040 106.421738,66.823746 107.009071,66.011452 
	C108.163933,66.646576 109.318787,67.281700 110.818390,67.949936 
	C111.431870,68.771019 111.700600,69.558990 111.726685,70.916031 
	C111.349632,74.068420 108.901314,77.633171 114.208481,77.908470 
	C115.820885,81.024040 117.433281,84.139618 118.704498,87.595444 
	C116.519974,87.226227 115.319763,86.970215 114.731697,89.714821 
	C114.384422,91.335594 112.318672,92.588165 111.025742,94.006317 
	C109.094521,90.234863 107.036102,93.281197 106.530693,94.519714 
	C103.990105,100.745483 98.752357,103.347694 93.023125,102.690865 
	C87.432098,102.049873 86.031189,96.350113 84.810493,90.982353 
M112.860680,82.518082 
	C112.470901,82.174400 112.081123,81.830711 111.691345,81.487030 
	C111.549805,82.032166 111.408264,82.577301 111.266731,83.122437 
	C111.757454,83.121269 112.248177,83.120102 112.860680,82.518082 
M111.592896,90.520302 
	C111.592896,90.520302 111.476479,90.592247 111.592896,90.520302 
z"/>
<path fill="#FCFBF4" opacity="1.000000" stroke="none" 
	d="
M98.124191,65.746910 
	C96.984886,66.298843 95.952988,66.637688 94.043144,67.264832 
	C94.841629,64.299828 95.446541,62.053627 96.064133,59.430084 
	C98.042114,54.275993 100.007423,49.499249 101.964035,44.344196 
	C103.328079,46.966167 104.700821,49.966446 106.075279,53.667656 
	C106.399216,54.916523 106.721436,55.464458 107.043648,56.012394 
	C107.043648,56.012394 107.193611,56.307312 107.198090,56.471245 
	C106.270172,57.902977 105.337784,59.170769 103.950455,60.624893 
	C102.997223,61.211094 102.498940,61.610966 102.000648,62.010838 
	C101.549004,62.645100 101.097351,63.279366 100.177994,63.796066 
	C99.476097,64.118423 99.241913,64.558342 99.007729,64.998268 
	C98.691360,65.093262 98.432655,65.271774 98.124191,65.746910 
z"/>
<path fill="#FFFFFE" opacity="1.000000" stroke="none" 
	d="
M110.889771,94.297180 
	C112.318672,92.588165 114.384422,91.335594 114.731697,89.714821 
	C115.319763,86.970215 116.519974,87.226227 118.725464,87.965759 
	C119.794701,89.713028 120.501793,91.430229 121.264572,93.494141 
	C118.561806,97.392899 113.397736,99.103905 110.286728,97.202042 
	C110.255295,96.196350 110.504547,95.392197 110.889771,94.297180 
z"/>
<path fill="#FBF7EA" opacity="1.000000" stroke="none" 
	d="
M114.171494,77.527122 
	C108.901314,77.633171 111.349632,74.068420 111.785645,71.225128 
	C112.769661,73.025360 113.452087,75.085564 114.171494,77.527122 
z"/>
<path fill="#FBF7EA" opacity="1.000000" stroke="none" 
	d="
M107.043205,55.687622 
	C106.721436,55.464458 106.399216,54.916523 106.102676,54.027752 
	C106.433151,54.245560 106.737953,54.804203 107.043205,55.687622 
z"/>
<path fill="#FEFEFB" opacity="1.000000" stroke="none" 
	d="
M42.035957,37.106934 
	C45.783489,36.724121 49.531025,36.341312 53.682770,35.923565 
	C58.102978,37.615662 62.118965,39.342693 66.456238,41.219608 
	C71.936447,48.462250 72.644913,55.980000 68.851471,64.288742 
	C65.447929,66.778694 62.123821,68.899971 58.430382,71.079910 
	C52.958469,70.100380 47.855885,69.062195 42.272118,67.800888 
	C41.601665,67.301933 41.344822,67.123215 41.020393,67.041611 
	C40.078419,67.019104 39.136448,66.996605 37.844040,66.964203 
	C37.394947,58.609909 37.296288,50.265511 37.134296,41.454956 
	C37.158825,40.838066 37.246685,40.687332 37.775600,40.274918 
	C39.489758,39.044468 40.762856,38.075699 42.035957,37.106934 
z"/>
<path fill="#F8F4E6" opacity="1.000000" stroke="none" 
	d="
M41.699932,37.068474 
	C40.762856,38.075699 39.489758,39.044468 37.903702,40.046700 
	C37.496773,39.631039 37.402802,39.181908 37.410828,38.397255 
	C38.240356,37.860405 38.967892,37.659077 39.854900,37.209316 
	C40.464222,36.983925 40.914062,37.006969 41.699932,37.068474 
z"/>
<path fill="#EEE8D4" opacity="1.000000" stroke="none" 
	d="
M40.879761,67.347412 
	C41.344822,67.123215 41.601665,67.301933 41.889519,67.796021 
	C41.831902,68.863945 41.675694,69.713631 41.519485,70.563309 
	C41.143192,70.539360 40.766899,70.515419 40.390606,70.491470 
	C40.506779,69.545387 40.622952,68.599304 40.879761,67.347412 
z"/>
<path fill="#F8F4E6" opacity="1.000000" stroke="none" 
	d="
M99.998627,72.994308 
	C99.570488,73.002136 99.142342,73.009964 98.393280,73.022736 
	C97.886497,72.689339 97.700638,72.351013 97.257706,71.861298 
	C98.731682,70.198120 100.520668,68.746620 102.176102,67.156120 
	C103.589737,65.797913 104.850006,64.280075 106.401108,62.589863 
	C106.577332,63.388027 106.790146,64.351929 107.006020,65.663643 
	C106.421738,66.823746 105.834404,67.636040 104.740326,68.724564 
	C102.821938,70.331963 101.410278,71.663139 99.998627,72.994308 
z"/>
<path fill="#F8F4E6" opacity="1.000000" stroke="none" 
	d="
M102.299416,61.987442 
	C102.498940,61.610966 102.997223,61.211094 103.747086,60.901054 
	C103.531837,61.315269 103.065010,61.639656 102.299416,61.987442 
z"/>
<path fill="#F8F4E6" opacity="1.000000" stroke="none" 
	d="
M99.226402,64.888969 
	C99.241913,64.558342 99.476097,64.118423 99.859436,63.836929 
	C99.904648,64.317093 99.716820,64.578529 99.226402,64.888969 
z"/>
<path fill="#F8F4E6" opacity="1.000000" stroke="none" 
	d="
M96.747948,74.084122 
	C96.772186,74.277893 96.539719,74.539352 96.044067,74.859207 
	C96.017662,74.662338 96.254456,74.407074 96.747948,74.084122 
z"/>
<path fill="#FBF7EA" opacity="1.000000" stroke="none" 
	d="
M100.412025,72.994781 
	C101.410278,71.663139 102.821938,70.331963 104.611755,68.998314 
	C105.490700,72.295883 103.897308,73.415329 100.412025,72.994781 
z"/>
<path fill="#FBF7EA" opacity="1.000000" stroke="none" 
	d="
M112.799789,82.818504 
	C112.248177,83.120102 111.757454,83.121269 111.266731,83.122437 
	C111.408264,82.577301 111.549805,82.032166 111.691345,81.487030 
	C112.081123,81.830711 112.470901,82.174400 112.799789,82.818504 
z"/>
<path fill="#F8F4E6" opacity="1.000000" stroke="none" 
	d="
M111.534683,90.556274 
	C111.476479,90.592247 111.592896,90.520302 111.534683,90.556274 
z"/>
</svg>